<svg width="48" height="50" viewBox="0 0 48 50" fill="none" xmlns="http://www.w3.org/2000/svg">
<g id="mingcute:message-2-line" clip-path="url(#clip0_2429_39084)">
<g id="Group">
<path id="Vector" d="M22.7584 38.4939H22.4228L22.1584 38.7005L15.9631 43.5411C15.9631 43.5411 15.9631 43.5411 15.963 43.5411C15.1323 44.1901 13.8198 43.6339 13.8198 42.3727V39.4683V38.4939H12.8454H10.9866C9.77917 38.4939 8.61277 37.9947 7.74638 37.0922C6.87869 36.1883 6.38457 34.9543 6.38457 33.6596V14.297C6.38457 13.0023 6.87868 11.7683 7.74638 10.8644C8.61277 9.96195 9.77917 9.4627 10.9866 9.4627H37.0098C38.2172 9.4627 39.3836 9.96195 40.25 10.8644C41.1177 11.7683 41.6118 13.0023 41.6118 14.297V33.6596C41.6118 34.9543 41.1177 36.1883 40.25 37.0922C39.3836 37.9947 38.2172 38.4939 37.0098 38.4939H22.7584ZM15.5886 39.4683V41.4663L17.1629 40.2361L21.1277 37.1382C21.6027 36.7671 22.1749 36.5702 22.7584 36.5702H37.0098C37.7743 36.5702 38.4991 36.2535 39.0271 35.7035C39.5538 35.1549 39.843 34.419 39.843 33.6596V14.297C39.843 13.5376 39.5538 12.8017 39.0271 12.2531C38.4991 11.7031 37.7744 11.3864 37.0098 11.3864H10.9866C10.222 11.3864 9.49724 11.7031 8.96926 12.2531C8.44258 12.8017 8.15335 13.5376 8.15335 14.297V33.6596C8.15335 34.419 8.44258 35.1549 8.96926 35.7035C9.49724 36.2535 10.222 36.5702 10.9866 36.5702H13.7748C14.2427 36.5702 14.6999 36.7635 15.0434 37.1213C15.3882 37.4805 15.5886 37.9758 15.5886 38.5002V39.4683Z" fill="white" stroke="white" stroke-width="1.94883"/>
</g>
<path id="Rectangle 43650" d="M14.8022 35.7031H9.41406V12.1396H39.0938V35.7031H24.2539H24.1133L23.9933 35.7764L16.8372 40.1465L15.2695 36.0253L15.1469 35.7031H14.8022Z" fill="white" stroke="white"/>
</g>
<defs>
<clipPath id="clip0_2429_39084">
<rect width="46.7719" height="48.7207" fill="white" transform="translate(0.617188 0.639648)"/>
</clipPath>
</defs>
</svg>
